# xmcd CD database file
#
# Track frame offsets:
#	150
#	21978
#	43393
#	63007
#	76841
#	92486
#	107971
#	133317
#
# Disc length: 1957 seconds
#
# Revision: 0
# Processed by: cddbd v1.5.1PL0 Copyright (c) Steve Scherf et al.
# Submitted via: CDex 1.51
#
DISCID=6707a308
DTITLE=Kristin Spitznogle - 3am
DYEAR=2004
DGENRE=Country
TTITLE0=Angel Heart
TTITLE1=Cecilia
TTITLE2=Mr. High Up In The Sky
TTITLE3=Hallelujah (Love Is All)
TTITLE4=So Tonight He Might See
TTITLE5=To Deserve You
TTITLE6=3am (The Judas Part)
TTITLE7=Song For Joshua
EXTD=YEAR: 2004
EXTT0=
EXTT1=
EXTT2=
EXTT3=
EXTT4=
EXTT5=
EXTT6=
EXTT7=
PLAYORDER=
